<svg width="112" height="33" viewBox="0 0 112 33" fill="none" xmlns="http://www.w3.org/2000/svg">
<g clip-path="url(#clip0_2_10426)">
<path d="M16.9033 0.00195312V17.8842H13.505L4.58825 7.0257V17.8842H0.5V0.00195312H3.92375L12.815 10.8582V0.00195312H16.9033Z" fill="white"/>
<path d="M36.2178 0.00195312H40.357V17.8842H36.2178V0.00195312Z" fill="white"/>
<path d="M76.0751 0.00195312V17.8842H72.6769L63.7594 7.0257V17.8842H59.6719V0.00195312H63.0956L71.9869 10.8605V0.00195312H76.0751Z" fill="white"/>
<path d="M95.2368 10.0152V0.00195312H99.3723V9.86145C99.3723 13.2597 100.854 14.6615 103.358 14.6615C105.888 14.6615 107.344 13.256 107.344 9.86145V0.00195312H111.432V10.0152C111.432 15.278 108.417 18.1902 103.332 18.1902C98.2466 18.1902 95.2368 15.2787 95.2368 10.0152Z" fill="white"/>
<path d="M34.6216 27.1491C34.6216 28.4399 33.6534 29.2424 32.1062 29.2424H30.9384V30.8391H29.5981V25.0469H32.1054C33.6534 25.0476 34.6216 25.8501 34.6216 27.1491ZM33.2649 27.1491C33.2649 26.5116 32.8509 26.1396 32.0319 26.1396H30.9384V28.1504H32.0304C32.8509 28.1504 33.2634 27.7784 33.2634 27.1491H33.2649Z" fill="white"/>
<path d="M41.8793 29.7636V30.8391H37.395V25.0469H41.772V26.1224H38.727V27.3824H41.418V28.4249H38.7293V29.7651L41.8793 29.7636Z" fill="white"/>
<path d="M48.4598 30.8391L47.343 29.2259H46.1108V30.8391H44.7705V25.0469H47.2778C48.825 25.0469 49.7933 25.8494 49.7933 27.1469C49.8091 27.5377 49.7029 27.9237 49.4893 28.2514C49.2757 28.579 48.9654 28.8321 48.6015 28.9754L49.9005 30.8369L48.4598 30.8391ZM47.202 26.1396H46.1108V28.1586H47.2028C48.0218 28.1586 48.4358 27.7776 48.4358 27.1491C48.4358 26.5206 48.0218 26.1396 47.202 26.1396Z" fill="white"/>
<path d="M54.0136 26.1231V27.6538H56.6941V28.7323H54.0136V30.8421H52.6733V25.0498H57.0518V26.1253L54.0136 26.1231Z" fill="white"/>
<path d="M59.7327 28.2916V25.0479H61.073V28.2414C61.073 29.3416 61.553 29.7969 62.3638 29.7969C63.1745 29.7969 63.6545 29.3416 63.6545 28.2414V25.0479H64.9782V28.2916C64.9929 28.6452 64.9359 28.9981 64.8107 29.329C64.6855 29.66 64.4946 29.9623 64.2497 30.2176C64.0047 30.473 63.7106 30.6761 63.3851 30.8149C63.0596 30.9537 62.7093 31.0253 62.3555 31.0253C62.0016 31.0253 61.6514 30.9537 61.3259 30.8149C61.0004 30.6761 60.7063 30.473 60.4613 30.2176C60.2163 29.9623 60.0255 29.66 59.9003 29.329C59.7751 28.9981 59.7181 28.6452 59.7327 28.2916Z" fill="white"/>
<path d="M73.396 30.8391L73.3878 27.3644L71.683 30.2271H71.0793L69.3828 27.4386V30.8391H68.125V25.0469H69.2335L71.4018 28.6469L73.5363 25.0469H74.6365L74.653 30.8391H73.396Z" fill="white"/>
<path d="M82.3356 29.7636V30.8391H77.8506V25.0469H82.2291V26.1224H79.1841V27.3824H81.8736V28.4249H79.1841V29.7651L82.3356 29.7636Z" fill="white"/>
</g>
<defs>
<clipPath id="clip0_2_10426">
<rect width="111" height="33" fill="white" transform="translate(0.5)"/>
</clipPath>
</defs>
</svg>
